<svg width="30" height="30" viewBox="0 0 30 30" fill="none" xmlns="http://www.w3.org/2000/svg">
<g clip-path="url(#clip0_5878_2757)">
<path d="M28.9076 12.3353L26.2189 9.64281V7.49531C26.2189 5.43156 24.5414 3.75156 22.4801 3.75156H20.3351L17.6464 1.06031C16.2326 -0.353438 13.7701 -0.353438 12.3576 1.06031L9.66887 3.75156H7.52387C5.46137 3.75156 3.78512 5.43031 3.78512 7.49531V9.64281L1.09512 12.3353C-0.361133 13.7953 -0.361133 16.1691 1.09512 17.6291L3.78387 20.3216V22.4691C3.78387 24.5328 5.46137 26.2128 7.52262 26.2128H9.66762L12.3564 28.9041C13.0626 29.6103 14.0026 30.0003 15.0014 30.0003C16.0001 30.0003 16.9389 29.6103 17.6451 28.9041L20.3339 26.2128H22.4789C24.5414 26.2128 26.2176 24.5341 26.2176 22.4691V20.3216L28.9076 17.6291C30.3639 16.1691 30.3639 13.7953 28.9076 12.3353ZM22.7551 12.7641L16.4376 19.0078C15.6701 19.7703 14.6589 20.1528 13.6489 20.1528C12.6389 20.1528 11.6326 19.7716 10.8626 19.0116L7.61387 15.8878C7.12387 15.4016 7.11887 14.6116 7.60512 14.1203C8.09262 13.6316 8.88137 13.6253 9.37387 14.1116L12.6214 17.2341C13.1876 17.7953 14.1089 17.7966 14.6764 17.2341L20.9951 10.9891C21.4876 10.5016 22.2776 10.5066 22.7639 10.9978C23.2501 11.4891 23.2451 12.2778 22.7551 12.7641Z" fill="#174AB5"/>
</g>
<defs>
<clipPath id="clip0_5878_2757">
<rect width="30" height="30" fill="white"/>
</clipPath>
</defs>
</svg>
