<svg width="30" height="30" viewBox="0 0 30 30" fill="none" xmlns="http://www.w3.org/2000/svg">
<g clip-path="url(#clip0_5878_2771)">
<path d="M28.9076 12.3353L26.2189 9.64281V7.49531C26.2189 5.43156 24.5414 3.75156 22.4801 3.75156H20.3351L17.6464 1.06031C16.2326 -0.353438 13.7701 -0.353438 12.3576 1.06031L9.66887 3.75156H7.52387C5.46137 3.75156 3.78512 5.43031 3.78512 7.49531V9.64281L1.09512 12.3353C-0.361133 13.7953 -0.361133 16.1691 1.09512 17.6291L3.78387 20.3216V22.4691C3.78387 24.5328 5.46137 26.2128 7.52262 26.2128H9.66762L12.3564 28.9041C13.0626 29.6103 14.0026 30.0003 15.0014 30.0003C16.0001 30.0003 16.9389 29.6103 17.6451 28.9041L20.3339 26.2128H22.4789C24.5414 26.2128 26.2176 24.5341 26.2176 22.4691V20.3216L28.9076 17.6291C30.3639 16.1691 30.3639 13.7953 28.9076 12.3353ZM22.7551 12.7641L16.4376 19.0078C15.6701 19.7703 14.6589 20.1528 13.6489 20.1528C12.6389 20.1528 11.6326 19.7716 10.8626 19.0116L7.61387 15.8878C7.12387 15.4016 7.11887 14.6116 7.60512 14.1203C8.09262 13.6316 8.88137 13.6253 9.37387 14.1116L12.6214 17.2341C13.1876 17.7953 14.1089 17.7966 14.6764 17.2341L20.9951 10.9891C21.4876 10.5016 22.2776 10.5066 22.7639 10.9978C23.2501 11.4891 23.2451 12.2778 22.7551 12.7641Z" fill="#D9D9D9"/>
<circle cx="15" cy="15" r="11" fill="#D9D9D9"/>
<path d="M10.928 12.216C10.992 11.224 11.3707 10.4507 12.064 9.896C12.768 9.34133 13.664 9.064 14.752 9.064C15.4987 9.064 16.144 9.19733 16.688 9.464C17.232 9.73067 17.6427 10.0933 17.92 10.552C18.1973 11.0107 18.336 11.528 18.336 12.104C18.336 12.7653 18.16 13.3307 17.808 13.8C17.456 14.2693 17.0347 14.584 16.544 14.744V14.808C17.1733 15 17.664 15.352 18.016 15.864C18.368 16.3653 18.544 17.0107 18.544 17.8C18.544 18.4293 18.4 18.9893 18.112 19.48C17.824 19.9707 17.3973 20.36 16.832 20.648C16.2667 20.9253 15.5893 21.064 14.8 21.064C13.648 21.064 12.6987 20.7707 11.952 20.184C11.216 19.5867 10.8213 18.7333 10.768 17.624H12.528C12.5707 18.1893 12.7893 18.6533 13.184 19.016C13.5787 19.368 14.112 19.544 14.784 19.544C15.4347 19.544 15.936 19.368 16.288 19.016C16.64 18.6533 16.816 18.1893 16.816 17.624C16.816 16.8773 16.576 16.3493 16.096 16.04C15.6267 15.72 14.9013 15.56 13.92 15.56H13.504V14.056H13.936C14.8 14.0453 15.456 13.9013 15.904 13.624C16.3627 13.3467 16.592 12.9093 16.592 12.312C16.592 11.8 16.4267 11.3947 16.096 11.096C15.7653 10.7867 15.296 10.632 14.688 10.632C14.0907 10.632 13.6267 10.7867 13.296 11.096C12.9653 11.3947 12.768 11.768 12.704 12.216H10.928Z" fill="#8E8E8E"/>
</g>
<defs>
<clipPath id="clip0_5878_2771">
<rect width="30" height="30" fill="white"/>
</clipPath>
</defs>
</svg>
